<?xml version="1.0" encoding="utf-8"?>
<!-- Generator: Adobe Illustrator 23.0.2, SVG Export Plug-In . SVG Version: 6.00 Build 0)  -->
<svg version="1.1" fill="#FFFFFF" id="Layer_1" xmlns="http://www.w3.org/2000/svg" xmlns:xlink="http://www.w3.org/1999/xlink" x="0px" y="0px"
	 viewBox="0 0 217.0001 224.8757" enable-background="new 0 0 217.0001 224.8757" xml:space="preserve">
<g>
	<path d="M6.5,181.7251c3.5899,0,6.5-2.9101,6.5-6.5c0-3.1408-2.2253-5.7601-5.1846-6.3684
		c0.18-20.8124,2.4392-41.2359,6.6292-47.9706c-0.1132-0.6609-0.1851-1.336-0.1851-2.0288c0-0.7747,0.0802-1.5304,0.2211-2.2646
		c-8.1993,5.9562-9.5468,36.2285-9.6678,52.3597C2.0424,169.6963,0,172.2183,0,175.2251C0,178.815,2.9102,181.7251,6.5,181.7251z"/>
	<path d="M28.7606,146.8022H25.706c1.4964,6.8303,1.4219,17.7099,1.3879,22.5911c-0.0054,0.7324-0.0098,1.377-0.0098,1.9141h1.9742
		V148.431C28.9667,147.8709,28.8679,147.327,28.7606,146.8022z"/>
	<path d="M23.6413,137.9692h-2.4274c-0.0126,0.1115-0.0255,0.2231-0.0386,0.3351c-0.6825,0.2159-1.3358,0.5854-1.8978,1.1515
		c-4.0688,4.0977-4.5449,16.8203-4.4531,29.959c0.0054,0.7246,0.0098,1.3613,0.0098,1.8926h3c0-0.5371-0.0044-1.1816-0.0098-1.9141
		c-0.0459-6.5762-0.168-24.0469,3.5815-27.8232c0.4565-0.46,0.8198-0.5127,1.0532-0.5127s0.5967,0.0527,1.0532,0.5127
		c0.0444,0.0447,0.0856,0.1006,0.129,0.1491V137.9692z"/>
	<path d="M135.2583,13.0846C135.2583,5.8702,129.388,0,122.1736,0s-13.0846,5.8702-13.0846,13.0846h2.1658
		c0-6.0204,4.8984-10.9188,10.9188-10.9188s10.9188,4.8984,10.9188,10.9188c0,6.0215-4.8984,10.9199-10.9188,10.9199H34.2354v2.1658
		h87.9382C129.388,26.1703,135.2583,20.3,135.2583,13.0846z"/>
	<path d="M128.8815,13.626c0-3.6326-2.9557-6.5872-6.5883-6.5872s-6.5873,2.9547-6.5873,6.5872h2.1658
		c0-2.4376,1.9839-4.4214,4.4214-4.4214c2.4386,0,4.4225,1.9839,4.4225,4.4214c0,2.4387-1.9839,4.4225-4.4225,4.4225H46.9254v2.1658
		h75.3677C125.9257,20.2144,128.8815,17.2586,128.8815,13.626z"/>
	<path d="M18.2595,118.8572c0,4.4182,3.582,8,8,8h34.127c4.083,0,7.5107-3.0747,7.9531-7.1338
		c1.3525-12.418,3.9346-20.1963,6.585-24.9434v32.1891h54.0918V99.907l22.5254,23.0212c1.5566,1.5916,3.6328,2.405,5.7207,2.405
		c1.708,0,3.4238-0.5452,4.8691-1.6545c3.2109-2.4658,4.0742-6.9421,2.0098-10.4248L136.7175,66.991l0.5068-5.4109
		c0.4131-4.3992-2.8193-8.2996-7.2178-8.7119c-0.0912-0.0085-0.1807-0.0061-0.2714-0.0115c0.15,1.1387,0.2353,2.2974,0.2353,3.4763
		c0,11.1271-6.8967,20.6678-16.6374,24.589c-1.3682,5.2781-3.5945,10.938-5.7201,15.7285l-1.6154-11.9005
		c-1.2953,0.4861-2.6576,0.7404-4.0206,0.7404h-0.0059h-0.0019c-1.3646,0.0009-2.7292-0.2531-4.0267-0.7393l-1.6143,11.8969
		c-2.3506-5.2978-4.826-11.6597-6.1245-17.3898c-3.1598-1.8357-5.9087-4.3016-8.0688-7.2302
		c-2.7614,0.0385-7.4923,0.7788-12.5306,4.6183c-8.0576,6.1404-13.4961,17.6313-16.207,34.2109H26.2595
		C21.8415,110.8572,18.2595,114.439,18.2595,118.8572z"/>
	<path d="M63.3922,224.7898c0.4897,0.0576,0.9751,0.0859,1.4561,0.0859c5.8343,0,10.9041-4.165,12.0067-9.9485H52.8011
		C53.777,220.0329,57.9554,224.1458,63.3922,224.7898z"/>
	<path d="M139.0934,224.8757c0.4805,0,0.9668-0.0283,1.4561-0.0859c5.4368-0.644,9.6152-4.7569,10.5912-9.8625h-24.0539
		C128.1893,220.7108,133.2586,224.8757,139.0934,224.8757z"/>
	<path d="M83.4665,46.0371l21.7245-6.7227c-0.1811-1.8896,0.3091-3.7441,1.3167-5.2717c-0.9939-0.1342-2.0065-0.2097-3.0372-0.2097
		C94.756,33.833,87.2039,38.7909,83.4665,46.0371z"/>
	<path d="M103.4705,78.833c12.4277,0,22.5-10.0733,22.5-22.5c0-5.4836-1.9633-10.5071-5.2228-14.4108
		c-0.9323,2.0469-2.6931,3.7056-5.0105,4.4227c-3.2966,1.0201-6.7423-0.156-8.7794-2.6909l-25.4695,7.8817
		c-0.336,1.5464-0.5178,3.1503-0.5178,4.7974C80.9705,68.7597,91.0447,78.833,103.4705,78.833z M113.3873,62.3723l-0.5244,2.9541
		c-11.4902-2.043-18.0093,4.5786-18.0737,4.6455l-2.1621-2.0791C92.9357,67.571,100.337,60.053,113.3873,62.3723z M106.2083,48.3908
		c1.7489,0,3.1667,1.4178,3.1667,3.1667s-1.4178,3.1666-3.1667,3.1666s-3.1667-1.4177-3.1667-3.1666
		S104.4594,48.3908,106.2083,48.3908z M92.375,52.8908c1.7489,0,3.1666,1.4178,3.1666,3.1667s-1.4177,3.1666-3.1666,3.1666
		s-3.1667-1.4177-3.1667-3.1666S90.6261,52.8908,92.375,52.8908z"/>
	<polygon points="19.3081,129.9692 19.3081,134.9692 26.6416,134.9692 26.6416,143.8024 32.0581,143.8024 32.0581,224.0972 
		38.5581,224.0972 38.5581,211.9272 197.7501,211.9272 197.7501,224.0972 204.2501,224.0972 204.2501,143.8024 209.6671,143.8024 
		209.6671,134.9692 217.0001,134.9692 217.0001,129.9692 	"/>
	<path d="M170.5416,121.9533v4.25h22v-4.25h-4.8333V68.0575c0-1.1-0.9-2-2-2h-8.3333c-1.1,0-2,0.9-2,2v53.8958H170.5416z"/>
</g>
</svg>