<svg width="98" height="104" viewBox="0 0 98 104" fill="none" xmlns="http://www.w3.org/2000/svg">
<path d="M24.5001 0.000244141H0V26.4408H24.5001V0.000244141ZM17.9667 19.39H6.53335V7.05106H17.9667V19.39Z" fill="white"/>
<path d="M24.5001 38.7798H0V65.2203H24.5001V38.7798ZM17.9667 58.1695H6.53335V45.8306H17.9667V58.1695Z" fill="white"/>
<path d="M24.5001 77.5593H0V104H24.5001V77.5593ZM17.9667 96.9491H6.53335V84.6101H17.9667V96.9491Z" fill="white"/>
<path d="M98.0001 0H32.6665V7.05082H98.0001V0Z" fill="white"/>
<path d="M84.9333 19.3901H32.6665V26.441H84.9333V19.3901Z" fill="white"/>
<path d="M98.0001 38.7795H32.6665V45.8304H98.0001V38.7795Z" fill="white"/>
<path d="M84.9333 58.1694H32.6665V65.2202H84.9333V58.1694Z" fill="white"/>
<path d="M84.9333 96.949H32.6665V104H84.9333V96.949Z" fill="white"/>
<path d="M98.0001 77.5588H32.6665V84.6097H98.0001V77.5588Z" fill="white"/>
</svg>
