<svg width="265" height="319" viewBox="0 0 265 319" fill="none" xmlns="http://www.w3.org/2000/svg">
<g clip-path="url(#clip0_1401_304)">
<path d="M241.218 282.865C241.143 282.865 241.067 282.865 240.991 282.864L41.0669 280.533C29.7036 280.386 20.5511 271.058 20.631 259.722C6.51672 212.973 0.297811 176.16 0.467869 140.369C0.645413 103.013 8.03745 65.0132 23.7297 20.7894C23.912 9.5291 33.1592 0.46228 44.4248 0.46228C44.4977 0.46228 44.5706 0.462735 44.6435 0.463413L244.568 2.79881C255.957 2.94548 265.122 12.3136 264.999 23.6818V23.6822L264.594 58.3067L264.293 58.3101L261.907 262.465C261.76 273.76 252.501 282.865 241.218 282.865ZM44.4246 1.39082C33.6401 1.39082 24.7936 10.0893 24.6585 20.8785L24.6576 20.9554L24.6318 21.0277C-5.33511 105.444 -6.14383 167.854 21.5419 259.521L21.5624 259.589L21.5617 259.66C21.4484 270.517 30.2034 279.464 41.0782 279.604L241.002 281.935C241.074 281.936 241.146 281.937 241.219 281.937C251.994 281.937 260.837 273.241 260.977 262.453L263.181 74.0351L263.19 73.1073L263.446 51.563L263.742 51.5605L264.069 23.6713C264.187 12.8146 255.434 3.86743 244.557 3.72733L44.6333 1.39195C44.5642 1.39127 44.4934 1.39082 44.4246 1.39082Z" fill="#F2F2F2"/>
<path d="M223.457 199.207L223.443 200.136H109.244V199.207H223.457Z" fill="#F2F2F2"/>
<path d="M223.685 179.476L223.676 180.404H109.244V179.476H223.685Z" fill="#F2F2F2"/>
<path d="M223.918 159.745L223.908 160.673H109.244V159.745H223.918Z" fill="#F2F2F2"/>
<path d="M223.201 220.749L223.192 221.678H106.695V124.228L107.625 124.237V182.554C107.625 188.524 108.997 194.175 111.443 199.207C111.596 199.518 111.75 199.829 111.913 200.136C118.283 212.383 131.107 220.749 145.884 220.749H223.201Z" fill="#F2F2F2"/>
<path d="M61.6485 269.195C50.4926 269.052 41.5578 259.92 41.6755 248.781C15.1063 160.813 13.4424 98.2561 44.7695 9.99989C44.8322 6.48758 45.8229 3.05427 47.6414 0.0472346L43.7072 0.00114672C32.5512 -0.116313 23.4049 8.80468 23.2615 19.9433C-8.06572 108.2 -6.40175 170.757 20.1675 258.725C20.0496 269.864 28.9846 278.996 40.1404 279.139L240.065 281.472C247.294 281.532 254 277.72 257.639 271.483L61.6485 269.195Z" fill="#F2F2F2"/>
<path d="M91.3956 163.997C91.7144 165.996 90.0826 167.859 88.0565 167.802L81.3322 182.934L76.683 182.105L84.8012 164.191C84.9339 162.7 86.0691 161.436 87.6181 161.205C89.4335 160.935 91.1247 162.185 91.3956 163.997Z" fill="#FFB6B6"/>
<path d="M55.0025 210.487L55.0025 210.487C56.9215 212.469 60.0301 212.682 62.2023 210.98L78.1118 198.52L85.9944 174.045L80.2634 171.398L69.4964 192.839L55.8043 202.327C53.0746 204.218 52.693 208.102 55.0025 210.487V210.487Z" fill="#3F3D56"/>
<path d="M58.4628 201.988C58.049 201.705 57.6073 201.454 57.1516 201.241C57.1609 201.12 57.1655 200.995 57.1655 200.874C57.1888 199.653 56.947 198.432 56.4541 197.313C56.5192 198.297 56.217 199.3 55.6218 200.085C55.5195 200.224 55.4079 200.354 55.287 200.479C55.2544 200.512 55.2219 200.544 55.1893 200.572C54.5337 200.424 53.8548 200.354 53.1806 200.363C52.432 200.377 51.688 200.479 50.9487 200.623C50.0234 200.8 49.1027 201.046 48.1821 201.25C48.1262 201.264 48.0751 201.273 48.0193 201.287C47.5962 200.14 46.9313 199.091 46.0664 198.228C46.4802 199.119 46.5639 200.164 46.2942 201.111C46.2477 201.278 46.1919 201.44 46.1222 201.598C45.1178 201.7 44.1135 201.672 43.151 201.394C42.7418 201.278 42.3558 201.12 41.9792 200.934C40.6493 200.284 39.4497 199.319 38.078 198.738C37.3387 198.423 36.5575 198.228 35.7577 198.149C35.0881 194.318 35.2741 190.92 37.3294 188.464C37.3294 182.86 41.8815 178.315 47.4939 178.315L52.153 179.931L56.8586 181.565C59.072 187.461 62.5919 192.652 58.4628 201.988Z" fill="#2F2E41"/>
<path d="M65.9639 308.141L69.1509 309.65L76.6273 297.821L71.9235 295.594L65.9639 308.141Z" fill="#FFB6B6"/>
<path d="M73.6261 316.639L70.2229 310.753L71.3045 308.476L70.179 308.021L66.6869 306.619L65.8318 306.273L61.3401 313.997L63.7318 315.128L65.2283 313.077L65.2479 315.847L71.5842 318.848C72.3718 319.221 73.3132 318.883 73.6849 318.1C73.9068 317.633 73.8848 317.087 73.6261 316.639Z" fill="#3F3D56"/>
<path d="M113.03 263.088L115.572 260.646L107.14 249.476L103.388 253.079L113.03 263.088Z" fill="#FFB6B6"/>
<path d="M123.703 258.943L116.984 260.036L115.234 258.219L114.41 259.109L111.86 261.873L111.233 262.549L116.877 269.479L118.783 267.646L117.392 265.523L119.994 266.485L125.049 261.632C125.676 261.028 125.694 260.03 125.092 259.405C124.733 259.032 124.214 258.86 123.703 258.943Z" fill="#3F3D56"/>
<path d="M59.1835 242.848L46.629 240.063L46.7132 243.877C46.7132 243.877 33.6095 253.991 45.699 263.741C57.7886 273.49 78.2478 274.419 78.2478 274.419L68.9481 301.346L73.598 303.203L91.9056 278.24C94.3707 273.765 93.6739 268.126 90.0015 264.57C89.2911 263.882 88.4774 263.276 87.5475 262.812C81.9677 260.026 67.0882 254.455 67.0882 254.455L59.6485 247.027L59.1835 242.848Z" fill="#2F2E41"/>
<path d="M58.7186 249.812L84.5048 233.428C87.3982 231.59 91.1667 231.916 93.7004 234.224L113.122 255.384L108.007 259.562L88.0125 245.634C88.0125 245.634 76.3879 258.634 73.133 258.634C69.8782 258.634 58.7186 249.812 58.7186 249.812Z" fill="#2F2E41"/>
<path d="M44.7691 251.136C44.7691 251.136 36.8495 246.654 40.5768 242.859C44.3041 239.065 44.7691 227.067 44.7691 227.067L38.7243 208.887L43.3741 205.638L44.7691 200.136L53.1388 199.672V203.78L61.523 213.049C64.3722 216.198 65.2328 220.668 63.7565 224.648L61.5085 230.708C61.5085 230.708 68.0182 247.886 62.4384 250.207C56.8586 252.529 44.7691 251.136 44.7691 251.136Z" fill="#3F3D56"/>
<path d="M86.6533 184.64L64.661 165.044C61.3391 162.103 61.0341 157.03 63.9797 153.713C66.9253 150.396 72.0064 150.092 75.3282 153.033L75.3661 153.067L97.3585 172.662C100.662 175.624 100.934 180.699 97.9679 183.997C95.0147 187.281 89.9604 187.568 86.6533 184.64H86.6533Z" fill="#F2F2F2"/>
<path d="M50.9273 198.134C55.5445 198.134 59.2874 194.397 59.2874 189.787C59.2874 185.177 55.5445 181.439 50.9273 181.439C46.3102 181.439 42.5673 185.177 42.5673 189.787C42.5673 194.397 46.3102 198.134 50.9273 198.134Z" fill="#FFB6B6"/>
<path d="M55.2823 188.065C55.2219 187.094 54.9847 186.133 54.5942 185.242C54.6593 186.226 54.357 187.229 53.7619 188.014C53.7479 188.032 53.734 188.046 53.7247 188.065C52.1879 188.81 49.5968 188.389 47.094 188.065V178.779H52.2088C57.2306 177.09 61.3643 180.767 61.5085 188.065C59.0992 188.501 56.8409 188.739 55.2823 188.065Z" fill="#2F2E41"/>
<path d="M50.9487 200.623C50.0234 200.8 49.1027 201.046 48.1821 201.25C48.1262 201.264 48.0751 201.273 48.0193 201.287C47.5962 200.14 46.9313 199.091 46.0664 198.228C46.4802 199.119 46.5639 200.164 46.2942 201.111C46.2477 201.278 46.1919 201.44 46.1222 201.598C45.1178 201.7 44.1135 201.673 43.151 201.394C42.7418 201.278 42.3558 201.12 41.9792 200.934V181.101H51.7438C47.9542 187.545 47.4148 194.045 50.9487 200.623Z" fill="#2F2E41"/>
<path d="M49.1037 177.411C48.9252 176.853 48.2449 176.587 47.6653 176.677C47.0857 176.767 46.5865 177.12 46.1111 177.463C46.5741 176.96 46.3385 176.073 45.7719 175.689C45.2052 175.306 44.4477 175.333 43.7937 175.534C43.1396 175.734 42.5439 176.089 41.905 176.333C41.2661 176.578 40.5377 176.708 39.905 176.448C40.1513 177.222 40.6275 177.921 41.2578 178.434C40.5123 178.304 39.7044 178.689 39.3381 179.351C38.9718 180.012 39.0738 180.9 39.5804 181.462C40.162 182.106 41.1456 182.257 41.9904 182.055C42.8351 181.852 43.5745 181.355 44.2866 180.859C44.9988 180.362 45.7219 179.848 46.5554 179.603L43.816 181.324C45.215 180.742 46.5724 180.06 47.8744 179.285C48.2225 179.078 48.5737 178.858 48.8281 178.543C49.0825 178.228 49.2269 177.797 49.1037 177.411Z" fill="#2F2E41"/>
<path d="M36.1937 260.812C36.1306 258.751 37.9787 257.288 39.8681 256.91C42.2687 256.43 44.7193 257.666 46.7534 258.789C50.3883 260.796 54.6055 258.806 58.4894 261.242C64.2225 264.839 65.4068 259.451 65.0457 253.091C64.7794 248.4 65.9174 243.792 66.1597 239.177C66.3931 234.733 67.6052 230.218 71.3787 227.457C72.9628 226.298 74.9362 225.612 76.9032 226.019C79.0041 226.453 80.6824 227.961 82.7068 228.617C86.474 229.838 90.436 228.19 93.2611 225.677C96.5472 222.754 98.1515 218.643 99.2807 214.497C100.452 210.198 101.167 205.696 103.313 201.736C105.145 198.357 108.022 195.237 111.988 194.593C115.874 193.961 119.597 195.863 122.95 197.567C126.402 199.32 129.97 201.219 133.925 201.382C142.399 201.733 148.945 194.534 152.617 187.689C156.809 179.877 159.24 170.397 166.687 164.874C169.888 162.499 173.949 160.842 177.993 161.507C182.081 162.18 185.067 165.14 187.781 168.033C190.561 170.996 193.322 173.916 197.089 175.622C200.786 177.297 204.916 177.924 208.943 177.394C210.888 177.138 212.748 176.606 214.548 175.83C215.37 175.475 214.66 174.275 213.844 174.627C209.898 176.329 205.406 176.624 201.242 175.6C197.059 174.571 193.726 172.235 190.772 169.176C188.068 166.376 185.526 163.188 181.988 161.389C178.41 159.569 174.307 159.615 170.614 161.084C166.869 162.573 163.625 165.207 161.165 168.373C158.308 172.051 156.408 176.363 154.497 180.577C151.045 188.194 146.619 197.188 137.786 199.555C129.423 201.797 123.235 194.408 115.433 193.235C111.598 192.658 107.968 193.984 105.253 196.719C102.441 199.551 100.815 203.296 99.7417 207.079C98.426 211.715 97.7486 216.68 95.3327 220.925C93.4229 224.28 89.8857 227.392 85.8662 227.624C83.5637 227.758 81.8005 226.697 79.8325 225.672C78.0583 224.748 76.2058 224.272 74.2116 224.661C70.4767 225.389 67.5749 228.684 66.1486 232.043C62.6305 240.33 67.4751 250.978 60.5881 258.064C59.3293 259.359 57.7148 260.333 55.8918 260.531C53.4496 260.796 51.166 259.661 49.0958 258.51C45.5198 256.521 40.9921 253.861 37.0727 256.622C35.6819 257.601 34.7457 259.08 34.7988 260.812C34.8261 261.707 36.2212 261.71 36.1937 260.812Z" fill="#8B8A92"/>
<path d="M175.429 164.387C177.74 164.387 179.614 162.516 179.614 160.209C179.614 157.901 177.74 156.03 175.429 156.03C173.118 156.03 171.244 157.901 171.244 160.209C171.244 162.516 173.118 164.387 175.429 164.387Z" fill="#202020"/>
<path d="M136.371 203.85C138.682 203.85 140.556 201.979 140.556 199.671C140.556 197.364 138.682 195.493 136.371 195.493C134.059 195.493 132.186 197.364 132.186 199.671C132.186 201.979 134.059 203.85 136.371 203.85Z" fill="#202020"/>
<path d="M112.509 73.3477C115.075 68.0299 121.733 65.0683 127.409 66.7198C130.606 67.6501 133.288 69.7877 136.228 71.3498C139.168 72.912 142.816 73.8821 145.773 72.353C150.856 69.7248 150.547 61.878 154.968 58.2476C157.911 55.8312 162.229 55.9442 165.867 57.077C169.504 58.2099 172.83 60.2099 176.491 61.2642C183.304 63.2261 191.051 61.5762 196.469 57.0094C196.523 56.9638 196.576 56.9178 196.629 56.8714C199.311 54.512 203.515 56.4564 203.416 60.0243L202.73 84.9062H112.989L112.509 73.3477Z" fill="#F2F2F2"/>
<path d="M191.268 68.864C191.564 68.7441 191.564 68.3305 191.268 68.2107C189.205 67.3751 186.895 66.1855 185.129 64.8915C184.846 64.6844 184.469 64.97 184.588 65.2992L185.593 68.0729H168.396V69.0015H185.593L184.588 71.7762C184.468 72.1055 184.846 72.3911 185.129 72.1839C186.895 70.8899 189.205 69.7001 191.268 68.864H191.268Z" fill="#3F3D56"/>
<path d="M152.579 64.3918C152.742 64.1177 152.491 63.7885 152.183 63.872C150.034 64.4541 147.474 64.9041 145.284 64.9417C144.933 64.9477 144.806 65.4034 145.1 65.5933L147.582 67.1933L133.896 77.5894L134.459 78.3284L148.145 67.9322L149.028 70.7483C149.133 71.0824 149.607 71.0813 149.706 70.7456C150.326 68.6482 151.444 66.3046 152.579 64.3918L152.579 64.3918Z" fill="#3F3D56"/>
<path d="M199.638 63.0752C204.041 63.0752 207.61 59.5119 207.61 55.1163C207.61 50.7208 204.041 47.1575 199.638 47.1575C195.236 47.1575 191.667 50.7208 191.667 55.1163C191.667 59.5119 195.236 63.0752 199.638 63.0752Z" fill="#202020"/>
<path opacity="0.7" d="M160.58 63.0752C164.982 63.0752 168.551 59.5119 168.551 55.1163C168.551 50.7208 164.982 47.1575 160.58 47.1575C156.178 47.1575 152.609 50.7208 152.609 55.1163C152.609 59.5119 156.178 63.0752 160.58 63.0752Z" fill="#202020"/>
<path opacity="0.25" d="M125.241 70.5036C129.644 70.5036 133.212 66.9403 133.212 62.5447C133.212 58.1491 129.644 54.5858 125.241 54.5858C120.839 54.5858 117.27 58.1491 117.27 62.5447C117.27 66.9403 120.839 70.5036 125.241 70.5036Z" fill="#202020"/>
<path d="M221.94 100.781L98.2573 99.8959C94.2818 99.8675 91.0271 103.071 90.9986 107.04C90.9701 111.01 94.1785 114.259 98.154 114.288L221.836 115.173C225.812 115.201 229.066 111.998 229.095 108.029C229.123 104.059 225.915 100.809 221.94 100.781Z" fill="#F2F2F2"/>
<path d="M79.7805 108.839C81.5781 108.839 83.0353 107.384 83.0353 105.59C83.0353 103.795 81.5781 102.34 79.7805 102.34C77.9828 102.34 76.5256 103.795 76.5256 105.59C76.5256 107.384 77.9828 108.839 79.7805 108.839Z" fill="#F2F2F2"/>
<path d="M221.94 20.927L98.2573 20.0419C94.2818 20.0135 91.0271 23.2169 90.9986 27.1863C90.9701 31.1557 94.1785 34.4054 98.154 34.4339L221.836 35.3189C225.812 35.3474 229.066 32.1439 229.095 28.1746C229.123 24.2052 225.915 20.9555 221.94 20.927Z" fill="#F2F2F2"/>
<path d="M79.7805 28.9855C81.5781 28.9855 83.0353 27.5304 83.0353 25.7356C83.0353 23.9407 81.5781 22.4857 79.7805 22.4857C77.9828 22.4857 76.5256 23.9407 76.5256 25.7356C76.5256 27.5304 77.9828 28.9855 79.7805 28.9855Z" fill="#F2F2F2"/>
<path d="M67.0108 285.827H46.754C45.0513 285.827 43.6661 284.444 43.6661 282.744V262.518C43.6661 260.818 45.0513 259.435 46.754 259.435H67.0108C68.7135 259.435 70.0987 260.818 70.0987 262.518V282.744C70.0987 284.444 68.7135 285.827 67.0108 285.827Z" fill="white"/>
<path d="M67.0108 285.827H46.754C45.0513 285.827 43.6661 284.444 43.6661 282.744V262.518C43.6661 260.818 45.0513 259.435 46.754 259.435H67.0108C68.7135 259.435 70.0987 260.818 70.0987 262.518V282.744C70.0987 284.444 68.7135 285.827 67.0108 285.827ZM46.754 259.929C45.3215 259.929 44.1601 261.088 44.1601 262.518V282.744C44.1601 284.174 45.3215 285.334 46.754 285.334H61.1904C65.8374 285.334 69.6046 281.573 69.6046 276.933V262.518C69.6046 261.088 68.4433 259.929 67.0108 259.929H46.754Z" fill="#E6E6E6"/>
<path d="M215.634 265.322C216.594 265.382 217.125 264.19 216.398 263.496L216.326 263.209C216.336 263.186 216.345 263.163 216.355 263.14C217.326 260.827 220.619 260.843 221.582 263.159C222.437 265.215 223.525 267.275 223.793 269.448C223.913 270.408 223.859 271.385 223.646 272.327C225.649 267.958 226.703 263.187 226.703 258.389C226.703 257.184 226.637 255.978 226.502 254.776C226.391 253.792 226.238 252.815 226.04 251.846C224.967 246.611 222.646 241.624 219.297 237.459C217.687 236.58 216.345 235.207 215.534 233.561C215.243 232.967 215.015 232.328 214.906 231.677C215.09 231.701 215.597 228.916 215.459 228.745C215.714 228.358 216.171 228.166 216.45 227.788C217.837 225.911 219.747 226.239 220.745 228.79C222.876 229.863 222.896 231.644 221.589 233.357C220.757 234.446 220.643 235.92 219.913 237.087C219.988 237.183 220.066 237.276 220.141 237.372C221.518 239.135 222.709 241.03 223.713 243.021C223.429 240.809 223.848 238.143 224.562 236.424C225.375 234.466 226.898 232.817 228.24 231.125C229.852 229.092 233.157 229.979 233.441 232.556C233.443 232.581 233.446 232.606 233.449 232.631C233.249 232.743 233.054 232.862 232.863 232.988C231.776 233.707 232.152 235.39 233.44 235.589L233.47 235.594C233.398 236.31 233.274 237.021 233.094 237.72C234.816 244.366 231.099 246.787 225.793 246.896C225.676 246.955 225.562 247.015 225.445 247.072C225.983 248.584 226.412 250.134 226.73 251.705C227.016 253.094 227.214 254.497 227.325 255.906C227.463 257.685 227.451 259.472 227.301 261.247L227.31 261.184C227.691 259.229 228.755 257.403 230.298 256.137C232.598 254.251 235.847 253.557 238.328 252.041C239.522 251.311 241.052 252.254 240.844 253.636L240.834 253.702C240.464 253.852 240.104 254.026 239.755 254.221C239.556 254.333 239.361 254.453 239.17 254.579C238.082 255.297 238.458 256.981 239.747 257.179L239.777 257.184C239.798 257.187 239.816 257.19 239.837 257.193C239.203 258.695 238.32 260.09 237.215 261.292C236.138 267.094 231.516 267.644 226.571 265.955H226.568C226.028 268.306 225.238 270.603 224.223 272.792H215.844C215.813 272.699 215.786 272.603 215.759 272.51C216.534 272.558 217.315 272.513 218.078 272.372C217.456 271.61 216.835 270.843 216.213 270.081C216.198 270.066 216.186 270.051 216.174 270.036C215.859 269.646 215.54 269.259 215.225 268.87L215.225 268.869C215.205 267.672 215.349 266.48 215.633 265.322L215.634 265.322Z" fill="#F2F2F2"/>
<path d="M47.8407 262.564C46.1638 261.427 45.9217 258.964 47.3513 257.53L40.9134 242.274L44.7018 239.458L52.2155 257.634C53.2133 258.752 53.3582 260.443 52.4657 261.728C51.4198 263.234 49.3491 263.609 47.8407 262.564H47.8407Z" fill="#FFB6B6"/>
<path d="M43.1011 207.038C40.3499 206.809 37.8704 208.694 37.3585 211.402L33.6095 231.242L45.2341 254.919L51.2788 252.134L43.8391 229.849L47.8813 213.705C48.6872 210.487 46.4122 207.314 43.1011 207.038Z" fill="#3F3D56"/>
<path d="M48.477 266.918C48.0923 266.918 47.7795 267.23 47.7795 267.614V268.078C47.7795 268.462 48.0923 268.775 48.477 268.775H64.7513C65.136 268.775 65.4488 268.462 65.4488 268.078V267.614C65.4488 267.23 65.136 266.918 64.7513 266.918H48.477Z" fill="#E6E6E6"/>
<path d="M48.477 272.025C48.0923 272.025 47.7795 272.337 47.7795 272.721V273.185C47.7795 273.569 48.0923 273.882 48.477 273.882H64.7513C65.136 273.882 65.4488 273.569 65.4488 273.185V272.721C65.4488 272.337 65.136 272.025 64.7513 272.025H48.477Z" fill="#E6E6E6"/>
<path d="M48.477 277.132C48.0923 277.132 47.7795 277.444 47.7795 277.828V278.292C47.7795 278.676 48.0923 278.989 48.477 278.989H64.7513C65.136 278.989 65.4488 278.676 65.4488 278.292V277.828C65.4488 277.444 65.136 277.132 64.7513 277.132H48.477Z" fill="#E6E6E6"/>
</g>
<defs>
<clipPath id="clip0_1401_304">
<rect width="265" height="319" fill="white"/>
</clipPath>
</defs>
</svg>
